<?xml version="1.0" encoding="UTF-8" standalone="no"?>
<!-- Created with Inkscape (http://www.inkscape.org/) -->

<svg
   version="1.1"
   id="svg132"
   width="1952.4388"
   height="1955.774"
   viewBox="0 0 1952.4389 1955.7741"
   sodipodi:docname="Logo_vuoto - Copia.svg"
   inkscape:export-filename="Logo_vuoto_tondo.svg"
   inkscape:export-xdpi="96"
   inkscape:export-ydpi="96"
   inkscape:version="1.2.2 (732a01da63, 2022-12-09)"
   xmlns:inkscape="http://www.inkscape.org/namespaces/inkscape"
   xmlns:sodipodi="http://sodipodi.sourceforge.net/DTD/sodipodi-0.dtd"
   xmlns="http://www.w3.org/2000/svg"
   xmlns:svg="http://www.w3.org/2000/svg">
  <sodipodi:namedview
     id="namedview16"
     pagecolor="#ffffff"
     bordercolor="#000000"
     borderopacity="0.25"
     inkscape:showpageshadow="2"
     inkscape:pageopacity="0.0"
     inkscape:pagecheckerboard="0"
     inkscape:deskcolor="#d1d1d1"
     showgrid="false"
     inkscape:zoom="0.4238731"
     inkscape:cx="759.66133"
     inkscape:cy="976.70743"
     inkscape:window-width="1920"
     inkscape:window-height="1009"
     inkscape:window-x="3832"
     inkscape:window-y="-8"
     inkscape:window-maximized="1"
     inkscape:current-layer="svg132" />
  <defs
     id="defs136" />
  <path
     d="M 2.1474786,1951.959 H 1950.2914 V 3.814996 H 2.1474786 Z"
     style="display:none;fill:#d9e70c;fill-opacity:1;fill-rule:nonzero;stroke:#000000;stroke-width:6.9392;stroke-dasharray:none;stroke-opacity:1"
     id="path142" />
  <ellipse
     style="fill:#d9e70c;fill-opacity:1;stroke:#000000;stroke-width:8;stroke-linecap:square;stroke-dasharray:none;stroke-opacity:1"
     id="path419"
     cx="976.21942"
     cy="977.88708"
     rx="972.21942"
     ry="973.88702" />
  <path
     d="m 592.27247,1392.9792 h 381.114 c 45.66603,0 96.64203,-7.542 152.89203,-22.644 41.148,-10.944 79.65,-32.94 115.524,-65.988 35.856,-33.03 63.9,-73.98 84.096,-122.868 20.196,-48.888 30.294,-117.702 30.294,-206.42403 0,-56.628 -6.804,-110.232 -20.394,-160.812 -13.59,-50.598 -35.478,-94.95 -65.682,-133.092 -30.204,-38.124 -68.436,-67.374 -114.678,-87.768 -46.242,-20.376 -106.938,-30.582 -182.05203,-30.582 h -381.114 z"
     style="fill:#231f20;fill-opacity:1;fill-rule:nonzero;stroke:none;stroke-width:18"
     id="path154" />
  <path
     d="m 832.25927,1318.9272 c 45.396,0 82.188,-36.792 82.188,-82.188 0,-45.396 -36.792,-82.188 -82.188,-82.188 -45.396,0 -82.188,36.792 -82.188,82.188 0,45.396 36.792,82.188 82.188,82.188"
     style="fill:#ffffff;fill-opacity:1;fill-rule:nonzero;stroke:none;stroke-width:18"
     id="path158" />
</svg>
